<svg
                  xmlns="http://www.w3.org/2000/svg"
                  width="30"
                  height="26"
                  viewBox="0 0 20 20"
                  fill="none"
                  className="kNaexcHToUCMBCwLD4WA"
                >
                  <path
                    d="M12.457 10.41a.917.917 0 101.833 0 .917.917 0 00-1.833 0zM9.083 10.41a.917.917 0 101.834 0 .917.917 0 00-1.834 0zM5.708 10.41a.917.917 0 101.834 0 .917.917 0 00-1.834 0zM12.457 13.784a.917.917 0 101.833 0 .917.917 0 00-1.833 0zM9.083 13.784a.917.917 0 101.834 0 .917.917 0 00-1.834 0zM5.708 13.784a.917.917 0 101.834 0 .917.917 0 00-1.834 0z"
                    fill="#141414"
                  ></path>
                  <path
                    fillRule="evenodd"
                    clipRule="evenodd"
                    d="M6.625 1.64c.345 0 .625.28.625.625v1.477h5.498V2.265a.625.625 0 111.25 0v1.477h.794a2.292 2.292 0 012.291 2.292v9.167a2.292 2.292 0 01-2.291 2.291H5.208a2.292 2.292 0 01-2.291-2.291V6.034a2.292 2.292 0 012.291-2.292H6V2.265c0-.346.28-.625.625-.625zm.625 3.352v1.856a.625.625 0 11-1.25 0V4.992h-.792c-.575 0-1.041.467-1.041 1.042v9.167c0 .575.466 1.041 1.041 1.041h9.584c.575 0 1.041-.466 1.041-1.041V6.034c0-.575-.466-1.042-1.041-1.042h-.794v1.856a.625.625 0 11-1.25 0V4.992H7.25z"
                    fill="#141414"
                  ></path>
                </svg>