<svg
              width="30"
              height="26"
              viewBox="0 0 20 20"
              fill="none"
              xmlns="http://www.w3.org/2000/svg"
            >
              <path
                fillRule="evenodd"
                clipRule="evenodd"
                d="M3.91 9.905l-.782.876a.708.708 0 01-1.057-.944L8.181 3a2.375 2.375 0 013.543 0l6.109 6.837a.708.708 0 11-1.056.944l-.783-.876v5.303a2.292 2.292 0 01-2.292 2.292h-2.915v-4.455c0-.585-.423-.966-.835-.966s-.835.381-.835.966V17.5H6.202a2.292 2.292 0 01-2.292-2.292V9.905zm5.328-5.961a.958.958 0 011.43 0l4.076 4.562v6.702c0 .576-.467 1.042-1.042 1.042h-1.665v-3.205c0-1.172-.884-2.216-2.085-2.216-1.2 0-2.085 1.044-2.085 2.216v3.205H6.202a1.042 1.042 0 01-1.042-1.042V8.506l4.078-4.562z"
                fill="#737373"
              ></path>
            </svg>