<svg
                  width="30"
                  height="26"
                  viewBox="0 0 20 20"
                  fill="none"
                  xmlns="http://www.w3.org/2000/svg"
                >
                  <g fill="#737373">
                    <path d="M12.702 7.426a.625.625 0 100-1.25H7.298a.625.625 0 000 1.25h5.404zM13.327 9.925c0 .345-.28.625-.625.625H7.298a.625.625 0 110-1.25h5.404c.345 0 .625.28.625.625zM8.964 13.675a.625.625 0 100-1.25H7.298a.625.625 0 100 1.25h1.666z"></path>
                    <path
                      fillRule="evenodd"
                      clipRule="evenodd"
                      d="M3.75 4.792A2.292 2.292 0 016.042 2.5h7.916a2.292 2.292 0 012.292 2.292v7.8c0 .517-.175 1.02-.497 1.425l-2.08 2.617a2.292 2.292 0 01-1.793.866H6.042a2.292 2.292 0 01-2.292-2.292V4.792zM6.042 3.75C5.466 3.75 5 4.216 5 4.792v10.416c0 .576.466 1.042 1.042 1.042h5.287v-3.195c0-.346.28-.625.625-.625H15V4.792c0-.576-.466-1.042-1.042-1.042H6.042zm6.653 12.106a1.043 1.043 0 01-.116.124v-2.3h1.845l-1.729 2.176z"
                    ></path>
                  </g>
                </svg>