<svg
                  width="30"
                  height="26"
                  viewBox="0 0 20 20"
                  fill="none"
                  xmlns="http://www.w3.org/2000/svg"
                >
                  <g fill="#737373">
                    <path d="M12.53 7.097a5.4 5.4 0 00-.185-1.329 3.318 3.318 0 011.357-.277h.007c1.148 0 2.032.516 2.579 1.271.535.739.733 1.685.588 2.56a6.845 6.845 0 01-1.087 2.66c.146.05.32.098.526.149l.18.044c.274.066.585.141.87.238.352.12.744.298 1.05.605.326.33.514.765.514 1.303v1.133c0 .713-.607 1.217-1.26 1.217h-3.07c.221-.356.359-.777.375-1.25h2.694a.06.06 0 00.01 0v-1.1c0-.221-.065-.336-.15-.421-.106-.107-.285-.208-.566-.304a8.53 8.53 0 00-.735-.2h-.002a34.527 34.527 0 01-.21-.052c-.331-.082-.714-.184-1.041-.352a1.008 1.008 0 01-.53-.758c-.05-.342.071-.65.246-.87.34-.426.803-1.34.953-2.246a2.2 2.2 0 00-.368-1.623c-.316-.437-.827-.754-1.566-.754h-.006c-.487 0-.875.138-1.173.356z"></path>
                    <path
                      fillRule="evenodd"
                      clipRule="evenodd"
                      d="M5.475 5.55a2.817 2.817 0 00-.473 2.08c.187 1.127.761 2.26 1.189 2.798.193.243.325.58.274.952a1.103 1.103 0 01-.542.82c-.38.215-.832.355-1.241.47-.119.034-.234.066-.346.096-.299.082-.576.158-.842.251-.362.128-.613.26-.771.41a.654.654 0 00-.214.52v1.38c0 .013.004.031.028.054a.177.177 0 00.121.043h9.668c.055 0 .097-.02.121-.043.024-.023.028-.041.028-.053v-1.38c0-.305-.093-.48-.223-.61-.151-.152-.392-.283-.743-.403a10.518 10.518 0 00-.91-.248l-.256-.063c-.403-.1-.855-.221-1.238-.417a1.092 1.092 0 01-.572-.823 1.248 1.248 0 01.27-.955c.428-.536 1.003-1.671 1.19-2.799a2.817 2.817 0 00-.472-2.08c-.41-.567-1.074-.975-2.02-.975h-.007c-.946 0-1.609.408-2.02.975zm-1.013-.733c.641-.886 1.678-1.492 3.032-1.492h.008c1.354 0 2.39.606 3.031 1.492.63.869.865 1.985.693 3.018-.217 1.313-.858 2.615-1.407 3.326.219.09.493.168.825.25l.224.055c.332.08.704.17 1.044.286.422.143.875.351 1.226.704.372.374.587.87.587 1.491v1.38c0 .785-.669 1.347-1.4 1.347H2.659c-.73 0-1.4-.562-1.4-1.346v-1.38a1.9 1.9 0 01.606-1.429c.349-.33.798-.534 1.215-.68.312-.11.654-.204.966-.29.103-.027.203-.055.297-.081.34-.096.623-.188.846-.293-.552-.708-1.2-2.019-1.419-3.34-.17-1.033.064-2.15.693-3.018z"
                    ></path>
                  </g>
                </svg>