<svg
                  width="30"
                  height="26"
                  viewBox="0 0 20 20"
                  fill="none"
                  xmlns="http://www.w3.org/2000/svg"
                >
                  <path
                    fillRule="evenodd"
                    clipRule="evenodd"
                    d="M8.236 7.604a.475.475 0 01-.4.303l-3.446.29c-.42.035-.59.582-.27.868l2.626 2.355c.135.12.194.31.153.49l-.803 3.52c-.097.428.348.767.706.537l2.952-1.886a.455.455 0 01.492 0l2.951 1.886c.36.23.804-.109.707-.537l-.803-3.52a.509.509 0 01.152-.49l2.627-2.355c.319-.286.15-.833-.27-.868l-3.447-.29a.475.475 0 01-.399-.303l-1.328-3.341a.465.465 0 00-.872 0L8.236 7.604zm4.516-.902l-1.153-2.9c-.58-1.458-2.619-1.458-3.198 0l-1.153 2.9-2.963.249c-1.607.135-2.064 2.091-1 3.045l2.298 2.06-.706 3.097c-.164.72.134 1.4.644 1.787a1.7 1.7 0 001.955.08L10 15.407l2.523 1.613a1.7 1.7 0 001.956-.08c.51-.388.808-1.066.644-1.787l-.706-3.097 2.298-2.06c1.064-.954.607-2.91-1-3.045l-2.963-.249z"
                    fill="#737373"
                  ></path>
                </svg>