<svg
                  width="30"
                  height="26"
                  viewBox="0 0 20 20"
                  fill="none"
                  xmlns="http://www.w3.org/2000/svg"
                >
                  <g fill="#737373">
                    <path
                      fillRule="evenodd"
                      clipRule="evenodd"
                      d="M10.8 3.704c-.416-.5-1.183-.5-1.6 0L5.396 8.27a1.042 1.042 0 00-.242.667v6.274c0 .575.467 1.042 1.042 1.042h7.608c.575 0 1.041-.467 1.041-1.042V8.937c0-.244-.085-.48-.24-.667L10.8 3.704zm-2.56-.8a2.292 2.292 0 013.521 0l3.804 4.566c.343.412.53.93.53 1.467v6.274a2.292 2.292 0 01-2.291 2.292H6.196a2.292 2.292 0 01-2.292-2.292V8.937c0-.536.188-1.055.531-1.467L8.24 2.903z"
                    ></path>
                    <path d="M11.667 8.338a1.667 1.667 0 11-3.334 0 1.667 1.667 0 013.334 0z"></path>
                  </g>
                </svg>